<svg width="26" height="26" viewBox="0 0 26 26" fill="none" xmlns="http://www.w3.org/2000/svg">
<path d="M13 15.6C12.5907 15.6 12.2477 15.4754 11.9708 15.2262C11.694 14.9771 11.5556 14.6683 11.5556 14.3C11.5556 13.9317 11.694 13.6229 11.9708 13.3737C12.2477 13.1246 12.5907 13 13 13C13.4093 13 13.7523 13.1246 14.0292 13.3737C14.306 13.6229 14.4444 13.9317 14.4444 14.3C14.4444 14.6683 14.306 14.9771 14.0292 15.2262C13.7523 15.4754 13.4093 15.6 13 15.6ZM7.22222 15.6C6.81296 15.6 6.46991 15.4754 6.19306 15.2262C5.9162 14.9771 5.77778 14.6683 5.77778 14.3C5.77778 13.9317 5.9162 13.6229 6.19306 13.3737C6.46991 13.1246 6.81296 13 7.22222 13C7.63148 13 7.97454 13.1246 8.25139 13.3737C8.52824 13.6229 8.66667 13.9317 8.66667 14.3C8.66667 14.6683 8.52824 14.9771 8.25139 15.2262C7.97454 15.4754 7.63148 15.6 7.22222 15.6ZM18.7778 15.6C18.3685 15.6 18.0255 15.4754 17.7486 15.2262C17.4718 14.9771 17.3333 14.6683 17.3333 14.3C17.3333 13.9317 17.4718 13.6229 17.7486 13.3737C18.0255 13.1246 18.3685 13 18.7778 13C19.187 13 19.5301 13.1246 19.8069 13.3737C20.0838 13.6229 20.2222 13.9317 20.2222 14.3C20.2222 14.6683 20.0838 14.9771 19.8069 15.2262C19.5301 15.4754 19.187 15.6 18.7778 15.6ZM13 20.8C12.5907 20.8 12.2477 20.6754 11.9708 20.4262C11.694 20.1771 11.5556 19.8683 11.5556 19.5C11.5556 19.1317 11.694 18.8229 11.9708 18.5737C12.2477 18.3246 12.5907 18.2 13 18.2C13.4093 18.2 13.7523 18.3246 14.0292 18.5737C14.306 18.8229 14.4444 19.1317 14.4444 19.5C14.4444 19.8683 14.306 20.1771 14.0292 20.4262C13.7523 20.6754 13.4093 20.8 13 20.8ZM7.22222 20.8C6.81296 20.8 6.46991 20.6754 6.19306 20.4262C5.9162 20.1771 5.77778 19.8683 5.77778 19.5C5.77778 19.1317 5.9162 18.8229 6.19306 18.5737C6.46991 18.3246 6.81296 18.2 7.22222 18.2C7.63148 18.2 7.97454 18.3246 8.25139 18.5737C8.52824 18.8229 8.66667 19.1317 8.66667 19.5C8.66667 19.8683 8.52824 20.1771 8.25139 20.4262C7.97454 20.6754 7.63148 20.8 7.22222 20.8ZM18.7778 20.8C18.3685 20.8 18.0255 20.6754 17.7486 20.4262C17.4718 20.1771 17.3333 19.8683 17.3333 19.5C17.3333 19.1317 17.4718 18.8229 17.7486 18.5737C18.0255 18.3246 18.3685 18.2 18.7778 18.2C19.187 18.2 19.5301 18.3246 19.8069 18.5737C20.0838 18.8229 20.2222 19.1317 20.2222 19.5C20.2222 19.8683 20.0838 20.1771 19.8069 20.4262C19.5301 20.6754 19.187 20.8 18.7778 20.8ZM2.16667 26C1.58889 26 1.08333 25.805 0.65 25.415C0.216667 25.025 0 24.57 0 24.05V3.9C0 3.38 0.216667 2.925 0.65 2.535C1.08333 2.145 1.58889 1.95 2.16667 1.95H4.51389V0H6.86111V1.95H19.1389V0H21.4861V1.95H23.8333C24.4111 1.95 24.9167 2.145 25.35 2.535C25.7833 2.925 26 3.38 26 3.9V24.05C26 24.57 25.7833 25.025 25.35 25.415C24.9167 25.805 24.4111 26 23.8333 26H2.16667ZM2.16667 24.05H23.8333V10.075H2.16667V24.05ZM2.16667 8.125H23.8333V3.9H2.16667V8.125ZM2.16667 8.125V3.9V8.125Z" fill="#50505F"/>
</svg>
