<svg width="26" height="20" viewBox="0 0 26 20" fill="none" xmlns="http://www.w3.org/2000/svg">
<path d="M1.95 20C1.43 20 0.975 19.75 0.585 19.25C0.195 18.75 0 18.1667 0 17.5V2.5C0 1.86111 0.195 1.28472 0.585 0.770833C0.975 0.256945 1.43 0 1.95 0H24.05C24.57 0 25.025 0.256945 25.415 0.770833C25.805 1.28472 26 1.86111 26 2.5V17.5C26 18.1667 25.805 18.75 25.415 19.25C25.025 19.75 24.57 20 24.05 20H1.95ZM1.95 17.5H24.05V2.5H19.825V10H17.875V2.5H13.975V10H12.025V2.5H8.125V10H6.175V2.5H1.95V17.5ZM6.175 10H8.125H6.175ZM12.025 10H13.975H12.025ZM17.875 10H19.825H17.875Z" fill="#50505F"/>
</svg>
