<svg width="623" height="884" viewBox="0 0 623 884" fill="none" xmlns="http://www.w3.org/2000/svg">
<g clip-path="url(#clip0_35_2)">
<path d="M1070.27 473.291C1065.04 533.688 1038.71 592.052 1001.15 640.322C999.578 642.341 997.989 644.341 996.382 646.322C992.765 650.78 989.054 655.155 985.25 659.445C980.596 664.73 975.806 669.894 970.88 674.936C966.87 679.086 962.767 683.147 958.571 687.119C955.332 690.218 952.056 693.255 948.743 696.232C908.885 732.249 863.097 761.971 815.92 787.963C723.853 838.672 622.939 877.086 517.974 882.68C413.023 888.26 303.459 858.202 226.491 786.617C122.759 690.148 93.8087 529.244 135.924 393.996C163.935 304.018 221.107 222.62 298.917 169.457C376.053 116.757 473.364 93.0356 565.459 108.541C638.978 63.8607 735.223 63.0055 815.149 96.078C857.797 113.729 896.071 139.974 929.648 171.686C945.025 186.24 959.413 201.803 972.717 218.273C974.076 219.942 975.422 221.624 976.754 223.321C982.334 230.372 987.732 237.569 992.947 244.911C1000.43 255.44 1007.54 266.202 1014.27 277.198C1016.12 280.227 1017.96 283.269 1019.75 286.339C1020.96 288.4 1022.18 290.475 1023.37 292.564C1023.4 292.607 1023.42 292.654 1023.43 292.704C1042.09 325.524 1057.34 360.545 1065.29 397.151C1066.69 403.628 1067.87 410.133 1068.78 416.694V416.708C1069.58 422.274 1070.18 427.868 1070.59 433.49C1071.55 446.744 1071.44 460.054 1070.27 473.291Z" fill="#3F3D56"/>
<path opacity="0.3" d="M796.379 564.597L588.241 391.204L790.444 571.542C790.835 572.201 791.378 572.758 792.028 573.166C792.678 573.574 793.415 573.82 794.18 573.886C794.944 573.952 795.713 573.834 796.422 573.543C797.132 573.253 797.762 572.797 798.261 572.213C798.759 571.63 799.111 570.937 799.288 570.19C799.465 569.444 799.461 568.666 799.277 567.922C799.093 567.177 798.734 566.487 798.23 565.909C797.726 565.33 797.092 564.881 796.379 564.597Z" fill="#F0F0F0"/>
<path d="M319.063 476.362C387.974 476.362 443.838 420.498 443.838 351.587C443.838 282.675 387.974 226.811 319.063 226.811C250.151 226.811 194.288 282.675 194.288 351.587C194.288 420.498 250.151 476.362 319.063 476.362Z" fill="#7A7A7A"/>
<path d="M429.818 343.175C429.82 358.088 426.883 372.855 421.177 386.633C415.47 400.412 407.105 412.931 396.56 423.476C386.015 434.021 373.496 442.386 359.718 448.092C345.939 453.799 331.172 456.735 316.259 456.734C302.967 456.727 289.778 454.402 277.284 449.865C257.749 442.748 240.542 430.408 227.534 414.189C214.526 397.971 206.217 378.494 203.512 357.88C200.806 337.266 203.808 316.305 212.19 297.279C220.572 278.253 234.013 261.891 251.05 249.974C268.087 238.058 288.067 231.044 308.814 229.696C329.561 228.348 350.28 232.717 368.715 242.328C387.151 251.94 402.597 266.425 413.37 284.206C424.144 301.988 429.833 322.384 429.818 343.175Z" fill="#878787"/>
<path d="M296.631 340.371C315.989 340.371 331.681 324.679 331.681 305.322C331.681 285.964 315.989 270.272 296.631 270.272C277.274 270.272 261.582 285.964 261.582 305.322C261.582 324.679 277.274 340.371 296.631 340.371Z" fill="#7E7E7E"/>
<path d="M425.388 311.672C417.792 315.327 409.133 316.122 400.999 313.911C392.864 311.7 385.799 306.631 381.098 299.634C376.397 292.637 374.375 284.18 375.403 275.814C376.431 267.447 380.439 259.731 386.694 254.08C405.281 268.774 418.81 288.91 425.388 311.672Z" fill="#FFBBBB"/>
<path d="M354.112 393.646C361.081 393.646 366.73 387.996 366.73 381.028C366.73 374.059 361.081 368.41 354.112 368.41C347.144 368.41 341.494 374.059 341.494 381.028C341.494 387.996 347.144 393.646 354.112 393.646Z" fill="#FF9D9D"/>
<path d="M302.239 452.528C302.238 453.636 302.092 454.739 301.805 455.809C293.433 454.762 285.206 452.767 277.284 449.865C277.942 446.82 279.703 444.127 282.227 442.302C284.752 440.478 287.862 439.651 290.959 439.982C294.056 440.312 296.921 441.777 299.004 444.093C301.086 446.409 302.239 449.414 302.239 452.528Z" fill="#B49B9B"/>
<path d="M227.935 337.567C227.934 343.968 225.501 350.13 221.128 354.805C216.755 359.48 210.769 362.319 204.382 362.746C201.491 346.081 202.334 328.982 206.849 312.682C212.74 313.664 218.092 316.704 221.953 321.26C225.814 325.817 227.933 331.595 227.935 337.567Z" fill="#BCA0A0"/>
<path d="M315.867 765.631C317.541 765.631 318.899 764.273 318.899 762.598C318.899 760.924 317.541 759.566 315.867 759.566C314.192 759.566 312.834 760.924 312.834 762.598C312.834 764.273 314.192 765.631 315.867 765.631Z" fill="#F0F0F0"/>
<path d="M428.24 496.557C431.107 496.557 433.431 494.233 433.431 491.366C433.431 488.499 431.107 486.175 428.24 486.175C425.374 486.175 423.05 488.499 423.05 491.366C423.05 494.233 425.374 496.557 428.24 496.557Z" fill="#E599F7"/>
<path d="M240.377 608.407C253.913 608.407 264.887 597.433 264.887 583.896C264.887 570.359 253.913 559.385 240.377 559.385C226.84 559.385 215.866 570.359 215.866 583.896C215.866 597.433 226.84 608.407 240.377 608.407Z" fill="#E599F7"/>
<path d="M374.749 614.218C376.424 614.218 377.782 612.861 377.782 611.186C377.782 609.511 376.424 608.153 374.749 608.153C373.074 608.153 371.717 609.511 371.717 611.186C371.717 612.861 373.074 614.218 374.749 614.218Z" fill="#F0F0F0"/>
<path d="M502.328 786.66C504.003 786.66 505.361 785.303 505.361 783.628C505.361 781.953 504.003 780.595 502.328 780.595C500.654 780.595 499.296 781.953 499.296 783.628C499.296 785.303 500.654 786.66 502.328 786.66Z" fill="#F0F0F0"/>
<path d="M457.465 168.393C459.14 168.393 460.498 167.035 460.498 165.36C460.498 163.685 459.14 162.327 457.465 162.327C455.791 162.327 454.433 163.685 454.433 165.36C454.433 167.035 455.791 168.393 457.465 168.393Z" fill="#F0F0F0"/>
<path d="M535.976 315.599C537.65 315.599 539.008 314.242 539.008 312.567C539.008 310.892 537.65 309.534 535.976 309.534C534.301 309.534 532.943 310.892 532.943 312.567C532.943 314.242 534.301 315.599 535.976 315.599Z" fill="#F0F0F0"/>
<path d="M415.798 676.81C417.473 676.81 418.83 675.452 418.83 673.777C418.83 672.103 417.473 670.745 415.798 670.745C414.123 670.745 412.765 672.103 412.765 673.777C412.765 675.452 414.123 676.81 415.798 676.81Z" fill="#F0F0F0"/>
<path d="M613.475 519.79C615.15 519.79 616.508 518.432 616.508 516.757C616.508 515.082 615.15 513.724 613.475 513.724C611.8 513.724 610.443 515.082 610.443 516.757C610.443 518.432 611.8 519.79 613.475 519.79Z" fill="#F0F0F0"/>
<path d="M594.732 217.226C598.053 217.226 600.745 214.534 600.745 211.213C600.745 207.892 598.053 205.2 594.732 205.2C591.411 205.2 588.719 207.892 588.719 211.213C588.719 214.534 591.411 217.226 594.732 217.226Z" fill="#FF6584"/>
<path d="M594.732 630.807C598.053 630.807 600.745 628.115 600.745 624.794C600.745 621.473 598.053 618.781 594.732 618.781C591.411 618.781 588.719 621.473 588.719 624.794C588.719 628.115 591.411 630.807 594.732 630.807Z" fill="#FF6584"/>
<path d="M1007.53 747.152C989.423 747.152 969.582 746.468 948.003 745.1C836.387 738.012 691.81 713.37 540.905 675.714C390.001 638.058 250.796 591.884 148.935 545.703C99.316 523.206 61.2335 501.911 35.7469 482.408C8.76308 461.761 -3.04001 443.764 0.664091 428.919C7.88142 399.998 71.7873 393.67 124.127 393.455L124.145 397.661C52.2686 397.956 9.86525 409.419 4.74547 429.937C-1.77629 456.07 51.4122 496.868 150.672 541.872C252.309 587.952 391.257 634.037 541.924 671.634C692.59 709.229 836.9 733.83 948.27 740.902C1057.03 747.811 1123.16 736.784 1129.68 710.651C1135.09 688.953 1099.4 656.99 1029.17 620.647L1031.1 616.912C1082.13 643.319 1141.36 681.194 1133.76 711.669C1130.05 726.514 1111.18 736.855 1077.66 742.404C1058.55 745.567 1035.08 747.152 1007.53 747.152Z" fill="#E599F7"/>
<path d="M336.562 798.219C286.653 798.22 240.255 796.507 198.717 793.052C144.424 788.534 101.401 781.271 70.8433 771.466C38.4906 761.084 21.3267 748.1 19.8283 732.873C16.908 703.209 74.9733 675.778 124.198 657.989L125.628 661.946C58.0292 686.373 21.9422 711.416 24.0136 732.462C26.6519 759.266 90.4559 779.822 199.066 788.86C310.277 798.113 456.632 794.834 611.171 779.621C765.71 764.411 909.896 739.095 1017.17 708.337C1121.93 678.298 1180.5 645.697 1177.87 618.893C1175.68 596.638 1131.32 578.526 1052.96 567.891L1053.53 563.723C1110.46 571.45 1178.98 587.223 1182.05 618.481C1183.55 633.708 1169.25 649.789 1139.54 666.279C1111.48 681.854 1070.7 697.365 1018.33 712.38C910.818 743.207 766.367 768.572 611.583 783.808C514.483 793.364 420.571 798.219 336.562 798.219Z" fill="#E599F7"/>
<path d="M464.691 49.0214C478.228 49.0214 489.202 38.0475 489.202 24.5107C489.202 10.9738 478.228 0 464.691 0C451.155 0 440.181 10.9738 440.181 24.5107C440.181 38.0475 451.155 49.0214 464.691 49.0214Z" fill="#E6E6E6"/>
<path d="M27.2774 632.24C40.8143 632.24 51.7881 621.266 51.7881 607.729C51.7881 594.193 40.8143 583.219 27.2774 583.219C13.7406 583.219 2.76675 594.193 2.76675 607.729C2.76675 621.266 13.7406 632.24 27.2774 632.24Z" fill="#E6E6E6"/>
<path d="M178.69 167.094C186.977 167.094 193.694 160.376 193.694 152.09C193.694 143.803 186.977 137.085 178.69 137.085C170.403 137.085 163.686 143.803 163.686 152.09C163.686 160.376 170.403 167.094 178.69 167.094Z" fill="#FF6584"/>
<path d="M108.592 736.293C116.878 736.293 123.596 729.575 123.596 721.289C123.596 713.002 116.878 706.284 108.592 706.284C100.305 706.284 93.5872 713.002 93.5872 721.289C93.5872 729.575 100.305 736.293 108.592 736.293Z" fill="#FF6584"/>
</g>
<defs>
<clipPath id="clip0_35_2">
<rect width="1200" height="883.333" fill="white"/>
</clipPath>
</defs>
</svg>
