<svg width="20" height="12" viewBox="0 0 20 12" fill="none" xmlns="http://www.w3.org/2000/svg">
<path d="M10.0091 8.59011L9.65552 8.23656L2.21281 0.793838C2.21279 0.79382 2.21277 0.793802 2.21275 0.793784C2.02456 0.605674 1.76936 0.5 1.50327 0.5C1.2372 0.5 0.982028 0.605654 0.793838 0.793731C0.793802 0.793767 0.793766 0.793802 0.793731 0.793838M10.0091 8.59011L0.440231 2.56631C0.158351 2.28434 0 1.90197 0 1.50327C0 1.10457 0.158351 0.722196 0.440231 0.440231L0.793731 0.793838M10.0091 8.59011L10.3626 8.23656L17.802 0.797154C17.991 0.61606 18.2433 0.515918 18.5051 0.518193C18.7683 0.520479 19.02 0.626026 19.2061 0.8121C19.3921 0.998173 19.4977 1.24989 19.5 1.51302C19.5022 1.77486 19.4021 2.02717 19.221 2.21615L10.7186 10.7185C10.7186 10.7185 10.7186 10.7185 10.7186 10.7186C10.5304 10.9067 10.2752 11.0123 10.0091 11.0123C9.74299 11.0123 9.48779 10.9067 9.29959 10.7186C9.29957 10.7185 9.29956 10.7185 9.29954 10.7185L0.793838 2.21281C0.79382 2.21279 0.793802 2.21277 0.793784 2.21275M10.0091 8.59011L0.793784 2.21275M0.793731 0.793838C0.605653 0.982029 0.5 1.2372 0.5 1.50327C0.5 1.76936 0.605673 2.02456 0.793784 2.21275M0.793731 0.793838L0.793784 2.21275" fill="white" stroke="white"/>
</svg>
