<svg width="26" height="26" viewBox="0 0 26 26" fill="none" xmlns="http://www.w3.org/2000/svg">
<path d="M17.7775 19.2725L19.24 17.81L14.0725 12.61V6.0775H12.1225V13.39L17.7775 19.2725ZM13 26C11.2233 26 9.54417 25.6587 7.9625 24.9762C6.38083 24.2937 4.99958 23.3621 3.81875 22.1812C2.63792 21.0004 1.70625 19.6192 1.02375 18.0375C0.34125 16.4558 0 14.7767 0 13C0 11.2233 0.34125 9.54417 1.02375 7.9625C1.70625 6.38083 2.63792 4.99958 3.81875 3.81875C4.99958 2.63792 6.38083 1.70625 7.9625 1.02375C9.54417 0.34125 11.2233 0 13 0C14.7767 0 16.4558 0.34125 18.0375 1.02375C19.6192 1.70625 21.0004 2.63792 22.1812 3.81875C23.3621 4.99958 24.2937 6.38083 24.9762 7.9625C25.6587 9.54417 26 11.2233 26 13C26 14.7767 25.6587 16.4558 24.9762 18.0375C24.2937 19.6192 23.3621 21.0004 22.1812 22.1812C21.0004 23.3621 19.6192 24.2937 18.0375 24.9762C16.4558 25.6587 14.7767 26 13 26ZM13 24.05C16.0333 24.05 18.6333 22.9667 20.8 20.8C22.9667 18.6333 24.05 16.0333 24.05 13C24.05 9.96667 22.9667 7.36667 20.8 5.2C18.6333 3.03333 16.0333 1.95 13 1.95C9.96667 1.95 7.36667 3.03333 5.2 5.2C3.03333 7.36667 1.95 9.96667 1.95 13C1.95 16.0333 3.03333 18.6333 5.2 20.8C7.36667 22.9667 9.96667 24.05 13 24.05Z" fill="#50505F"/>
</svg>
