<svg width="9" height="7" viewBox="0 0 9 7" fill="none" xmlns="http://www.w3.org/2000/svg">
<path d="M7.85463 0.854632C7.94852 0.760745 8.00126 0.633408 8.00126 0.500632C8.00126 0.367856 7.94852 0.240518 7.85463 0.146632C7.76074 0.0527451 7.63341 9.89257e-10 7.50063 0C7.36786 -9.89256e-10 7.24052 0.0527451 7.14663 0.146632L2.50063 4.79363L0.854632 3.14663C0.808144 3.10014 0.752955 3.06327 0.692215 3.03811C0.631476 3.01295 0.566376 3 0.500632 3C0.434888 3 0.369788 3.01295 0.309048 3.03811C0.248309 3.06327 0.19312 3.10014 0.146632 3.14663C0.100144 3.19312 0.0632674 3.24831 0.0381083 3.30905C0.0129493 3.36979 0 3.43489 0 3.50063C0 3.56638 0.0129493 3.63148 0.0381083 3.69222C0.0632674 3.75295 0.100144 3.80814 0.146632 3.85463L2.14663 5.85463C2.19308 5.9012 2.24825 5.93814 2.309 5.96334C2.36974 5.98855 2.43486 6.00153 2.50063 6.00153C2.5664 6.00153 2.63152 5.98855 2.69227 5.96334C2.75301 5.93814 2.80819 5.9012 2.85463 5.85463L7.85463 0.854632Z" fill="white"/>
</svg>
