<svg width="30" height="29" viewBox="0 0 30 29" fill="none" xmlns="http://www.w3.org/2000/svg">
<path d="M28.1667 28.0833L17.2083 18.0382C16.375 18.7002 15.4028 19.2159 14.2917 19.5851C13.1806 19.9543 12 20.1389 10.75 20.1389C7.75 20.1389 5.20833 19.184 3.125 17.2743C1.04167 15.3646 0 13.0602 0 10.3611C0 7.66205 1.04167 5.35765 3.125 3.44793C5.20833 1.5382 7.73611 0.583344 10.7083 0.583344C13.6528 0.583344 16.1597 1.5382 18.2292 3.44793C20.2986 5.35765 21.3333 7.66205 21.3333 10.3611C21.3333 11.456 21.1389 12.5127 20.75 13.5313C20.3611 14.5498 19.7778 15.5046 19 16.3958L30 26.4028L28.1667 28.0833ZM10.7083 17.8472C12.9583 17.8472 14.875 17.1152 16.4583 15.6511C18.0417 14.1869 18.8333 12.4236 18.8333 10.3611C18.8333 8.29862 18.0417 6.53531 16.4583 5.07119C14.875 3.60707 12.9583 2.87501 10.7083 2.87501C8.43056 2.87501 6.49306 3.60707 4.89583 5.07119C3.29861 6.53531 2.5 8.29862 2.5 10.3611C2.5 12.4236 3.29861 14.1869 4.89583 15.6511C6.49306 17.1152 8.43056 17.8472 10.7083 17.8472Z" fill="white"/>
</svg>
